<mxfile host="www.draw.io" modified="2020-01-13T14:17:09.227Z" agent="Mozilla/5.0 (Macintosh; Intel Mac OS X 10_14_6) AppleWebKit/537.36 (KHTML, like Gecko) Chrome/79.0.3945.88 Safari/537.36" etag="ORqv6M6MdoQNjqSyZTw8" version="12.5.1" type="github">
  <diagram id="ix-MmbvepVvaot0NmQJl" name="Page-1">
    <mxGraphModel dx="1395" dy="826" grid="1" gridSize="10" guides="1" tooltips="1" connect="1" arrows="1" fold="1" page="1" pageScale="1" pageWidth="850" pageHeight="1100" math="0" shadow="0">
      <root>
        <mxCell id="0"/>
        <mxCell id="1" parent="0"/>
        <mxCell id="xox23X26iSPxFIq_AWJZ-1" value="On prem Deployment begins here" style="rounded=1;whiteSpace=wrap;html=1;" vertex="1" parent="1">
          <mxGeometry x="320" y="300" width="210" height="60" as="geometry"/>
        </mxCell>
        <mxCell id="xox23X26iSPxFIq_AWJZ-2" value="Submit Service Now request for BB repo creation on prem" style="rounded=0;whiteSpace=wrap;html=1;" vertex="1" parent="1">
          <mxGeometry x="330" y="403" width="190" height="60" as="geometry"/>
        </mxCell>
        <mxCell id="xox23X26iSPxFIq_AWJZ-4" value="" style="rounded=0;whiteSpace=wrap;html=1;" vertex="1" parent="1">
          <mxGeometry x="330" y="503" width="190" height="60" as="geometry"/>
        </mxCell>
        <mxCell id="xox23X26iSPxFIq_AWJZ-5" value="" style="rounded=0;whiteSpace=wrap;html=1;" vertex="1" parent="1">
          <mxGeometry x="330" y="603" width="190" height="60" as="geometry"/>
        </mxCell>
        <mxCell id="xox23X26iSPxFIq_AWJZ-6" value="" style="rounded=0;whiteSpace=wrap;html=1;" vertex="1" parent="1">
          <mxGeometry x="330" y="703" width="190" height="60" as="geometry"/>
        </mxCell>
        <mxCell id="xox23X26iSPxFIq_AWJZ-7" value="" style="rounded=0;whiteSpace=wrap;html=1;" vertex="1" parent="1">
          <mxGeometry x="330" y="800" width="190" height="60" as="geometry"/>
        </mxCell>
        <mxCell id="xox23X26iSPxFIq_AWJZ-8" value="" style="rounded=0;whiteSpace=wrap;html=1;" vertex="1" parent="1">
          <mxGeometry x="330" y="910" width="190" height="60" as="geometry"/>
        </mxCell>
        <mxCell id="xox23X26iSPxFIq_AWJZ-9" value="" style="rounded=0;whiteSpace=wrap;html=1;" vertex="1" parent="1">
          <mxGeometry x="330" y="1020" width="190" height="60" as="geometry"/>
        </mxCell>
        <mxCell id="xox23X26iSPxFIq_AWJZ-10" value="" style="rounded=0;whiteSpace=wrap;html=1;" vertex="1" parent="1">
          <mxGeometry x="330" y="1130" width="190" height="60" as="geometry"/>
        </mxCell>
        <mxCell id="xox23X26iSPxFIq_AWJZ-11" value="" style="rounded=0;whiteSpace=wrap;html=1;" vertex="1" parent="1">
          <mxGeometry x="330" y="1240" width="190" height="60" as="geometry"/>
        </mxCell>
        <mxCell id="xox23X26iSPxFIq_AWJZ-12" value="" style="rounded=0;whiteSpace=wrap;html=1;" vertex="1" parent="1">
          <mxGeometry x="330" y="1350" width="190" height="60" as="geometry"/>
        </mxCell>
        <mxCell id="xox23X26iSPxFIq_AWJZ-13" value="" style="rounded=0;whiteSpace=wrap;html=1;" vertex="1" parent="1">
          <mxGeometry x="330" y="1460" width="190" height="60" as="geometry"/>
        </mxCell>
      </root>
    </mxGraphModel>
  </diagram>
</mxfile>
